<svg width="29" height="29" viewBox="-2 -2 39 39" id="icon-glass" x="306" y="136.5" xmlns="http://www.w3.org/2000/svg">
	<path fill="#212129" fill-rule="evenodd" clip-rule="evenodd" d="M34.7 34.7c-.4.4-1.1.4-1.5 0l-11-11.1c-.4-.4-.4-1.1 0-1.5.4-.4 1.1-.4 1.5 0l11 11.1c.4.3.4 1 0 1.5z"/>
	<path fill="#212129" d="M13.6 0C6.1 0 0 6.1 0 13.7s6.1 13.7 13.6 13.7 13.6-6.1 13.6-13.7S21.1 0 13.6 0zm0 25.2C7.3 25.2 2.2 20 2.2 13.7c0-6.4 5.1-11.5 11.5-11.5 6.3 0 11.5 5.1 11.5 11.5-.1 6.3-5.3 11.5-11.6 11.5z"/>
</svg>